<svg width="1907" height="320" viewBox="0 0 1907 320" fill="none" xmlns="http://www.w3.org/2000/svg">
<rect x="62" y="274" width="121" height="46" rx="9" fill="#C4C4C4" fill-opacity="0.22"/>
<rect x="62" y="219" width="121" height="46" rx="9" fill="#C4C4C4" fill-opacity="0.22"/>
<rect x="62" y="164" width="121" height="46" rx="9" fill="#C4C4C4" fill-opacity="0.22"/>
<rect x="194" y="219" width="121" height="46" rx="9" fill="#C4C4C4" fill-opacity="0.22"/>
<rect x="194" y="274" width="121" height="46" rx="9" fill="#C4C4C4" fill-opacity="0.22"/>
<rect x="326" y="274" width="121" height="46" rx="9" fill="#C4C4C4" fill-opacity="0.22"/>
<rect x="326" y="219" width="121" height="46" rx="9" fill="#C4C4C4" fill-opacity="0.22"/>
<rect x="326" y="164" width="121" height="46" rx="9" fill="#C4C4C4" fill-opacity="0.22"/>
<rect x="458" y="219" width="121" height="46" rx="9" fill="#C4C4C4" fill-opacity="0.22"/>
<rect x="458" y="274" width="121" height="46" rx="9" fill="#C4C4C4" fill-opacity="0.22"/>
<rect x="590" y="274" width="121" height="46" rx="9" fill="#C4C4C4" fill-opacity="0.22"/>
<rect x="856" y="274" width="121" height="46" rx="9" fill="#C4C4C4" fill-opacity="0.22"/>
<rect x="1122" y="274" width="121" height="46" rx="9" fill="#C4C4C4" fill-opacity="0.22"/>
<rect x="1388" y="274" width="121" height="46" rx="9" fill="#C4C4C4" fill-opacity="0.22"/>
<rect x="1654" y="274" width="121" height="46" rx="9" fill="#C4C4C4" fill-opacity="0.22"/>
<rect x="1654" y="110" width="121" height="46" rx="9" fill="#C4C4C4" fill-opacity="0.22"/>
<rect x="1393" y="110" width="121" height="46" rx="9" fill="#C4C4C4" fill-opacity="0.22"/>
<rect x="326" y="112" width="121" height="46" rx="9" fill="#C4C4C4" fill-opacity="0.22"/>
<rect x="62" y="108" width="121" height="46" rx="9" fill="#C4C4C4" fill-opacity="0.22"/>
<rect x="-71" y="270" width="121" height="46" rx="9" fill="#C4C4C4" fill-opacity="0.22"/>
<rect x="-71" y="215" width="121" height="46" rx="9" fill="#C4C4C4" fill-opacity="0.22"/>
<rect x="856" y="219" width="121" height="46" rx="9" fill="#C4C4C4" fill-opacity="0.22"/>
<rect x="1122" y="219" width="121" height="46" rx="9" fill="#C4C4C4" fill-opacity="0.22"/>
<rect x="1388" y="219" width="121" height="46" rx="9" fill="#C4C4C4" fill-opacity="0.22"/>
<rect x="1654" y="219" width="121" height="46" rx="9" fill="#C4C4C4" fill-opacity="0.22"/>
<rect x="1654" y="55" width="121" height="46" rx="9" fill="#C4C4C4" fill-opacity="0.22"/>
<rect x="1393" y="55" width="121" height="46" rx="9" fill="#C4C4C4" fill-opacity="0.22"/>
<rect x="856" y="164" width="121" height="46" rx="9" fill="#C4C4C4" fill-opacity="0.22"/>
<rect x="1122" y="164" width="121" height="46" rx="9" fill="#C4C4C4" fill-opacity="0.22"/>
<rect x="1388" y="164" width="121" height="46" rx="9" fill="#C4C4C4" fill-opacity="0.22"/>
<rect x="1654" y="164" width="121" height="46" rx="9" fill="#C4C4C4" fill-opacity="0.22"/>
<rect x="1654" width="121" height="46" rx="9" fill="#C4C4C4" fill-opacity="0.22"/>
<rect x="1393" width="121" height="46" rx="9" fill="#C4C4C4" fill-opacity="0.22"/>
<rect x="329" y="59" width="121" height="46" rx="9" fill="#C4C4C4" fill-opacity="0.22"/>
<rect x="722" y="219" width="121" height="46" rx="9" fill="#C4C4C4" fill-opacity="0.22"/>
<rect x="988" y="219" width="121" height="46" rx="9" fill="#C4C4C4" fill-opacity="0.22"/>
<rect x="1254" y="219" width="121" height="46" rx="9" fill="#C4C4C4" fill-opacity="0.22"/>
<rect x="1520" y="219" width="121" height="46" rx="9" fill="#C4C4C4" fill-opacity="0.22"/>
<rect x="1786" y="219" width="121" height="46" rx="9" fill="#C4C4C4" fill-opacity="0.22"/>
<rect x="1521" y="164" width="121" height="46" rx="9" fill="#C4C4C4" fill-opacity="0.22"/>
<rect x="1254" y="108" width="121" height="46" rx="9" fill="#C4C4C4" fill-opacity="0.22"/>
<rect x="722" y="109" width="121" height="46" rx="9" fill="#C4C4C4" fill-opacity="0.22"/>
<rect x="722" y="274" width="121" height="46" rx="9" fill="#C4C4C4" fill-opacity="0.22"/>
<rect x="988" y="274" width="121" height="46" rx="9" fill="#C4C4C4" fill-opacity="0.22"/>
<rect x="1254" y="274" width="121" height="46" rx="9" fill="#C4C4C4" fill-opacity="0.22"/>
<rect x="1520" y="274" width="121" height="46" rx="9" fill="#C4C4C4" fill-opacity="0.22"/>
<rect x="1786" y="274" width="121" height="46" rx="9" fill="#C4C4C4" fill-opacity="0.22"/>
<rect x="1523" y="112" width="121" height="46" rx="9" fill="#C4C4C4" fill-opacity="0.22"/>
<rect x="1254" y="164" width="121" height="46" rx="9" fill="#C4C4C4" fill-opacity="0.22"/>
<rect x="722" y="164" width="121" height="46" rx="9" fill="#C4C4C4" fill-opacity="0.22"/>
<rect x="458" y="164" width="121" height="46" rx="9" fill="#C4C4C4" fill-opacity="0.22"/>
<rect x="194" y="164" width="121" height="46" rx="9" fill="#C4C4C4" fill-opacity="0.22"/>
</svg>
