<svg width="90" height="90" viewBox="0 0 90 90" fill="none" xmlns="http://www.w3.org/2000/svg">
<path fill-rule="evenodd" clip-rule="evenodd" d="M45.0004 0C20.1506 0 0 20.6562 0 46.1389C0 66.5246 12.894 83.8197 30.774 89.9207C33.023 90.3478 33.8486 88.9198 33.8486 87.7011C33.8486 86.6009 33.8069 82.9663 33.7875 79.1109C21.2684 81.902 18.6267 73.667 18.6267 73.667C16.5797 68.3339 13.6302 66.9158 13.6302 66.9158C9.54734 64.0521 13.938 64.111 13.938 64.111C18.4568 64.4357 20.8362 68.8657 20.8362 68.8657C24.8498 75.9194 31.3634 73.8802 33.9314 72.7012C34.3352 69.7199 35.5015 67.6829 36.7884 66.5315C26.7932 65.3648 16.2861 61.4085 16.2861 43.7291C16.2861 38.6917 18.044 34.5757 20.9226 31.3445C20.4554 30.1816 18.9151 25.4896 21.3586 19.1342C21.3586 19.1342 25.1374 17.8941 33.7369 23.8637C37.3264 22.8414 41.1761 22.3287 45.0004 22.3111C48.8247 22.3287 52.6773 22.8414 56.2736 23.8637C64.8626 17.8941 68.6362 19.1342 68.6362 19.1342C71.0857 25.4896 69.5446 30.1816 69.0774 31.3445C71.9627 34.5757 73.7087 38.6917 73.7087 43.7291C73.7087 61.4505 63.1814 65.3526 53.1609 66.4948C54.775 67.9267 56.2132 70.7346 56.2132 75.0392C56.2132 81.212 56.161 86.1807 56.161 87.7011C56.161 88.929 56.9711 90.3677 59.2521 89.9146C77.1224 83.8067 90 66.5177 90 46.1389C90 20.6562 69.8524 0 45.0004 0Z" fill="white"/>
<path fill-rule="evenodd" clip-rule="evenodd" d="M17.044 66.2459C16.9449 66.4758 16.5931 66.5438 16.2727 66.3864C15.9463 66.2359 15.763 65.9234 15.8688 65.6934C15.9657 65.4574 16.3182 65.3924 16.6438 65.549C16.9709 65.7003 17.1572 66.0159 17.044 66.2459Z" fill="white"/>
<path fill-rule="evenodd" clip-rule="evenodd" d="M18.8667 68.3301C18.652 68.5341 18.2325 68.4394 17.9478 68.117C17.6535 67.7953 17.5983 67.3651 17.8159 67.1581C18.0373 66.9541 18.4441 67.0496 18.7392 67.3713C19.0336 67.6967 19.091 68.1239 18.8667 68.3301Z" fill="white"/>
<path fill-rule="evenodd" clip-rule="evenodd" d="M20.6409 70.9874C20.3652 71.1838 19.9144 70.9997 19.6357 70.5894C19.36 70.1791 19.36 69.687 19.6416 69.4899C19.9211 69.2928 20.3652 69.47 20.6476 69.8773C20.9226 70.2937 20.9226 70.7865 20.6409 70.9874Z" fill="white"/>
<path fill-rule="evenodd" clip-rule="evenodd" d="M23.0718 73.5548C22.8251 73.8337 22.2998 73.7588 21.9153 73.3783C21.5218 73.0062 21.4123 72.4783 21.6597 72.1994C21.9093 71.9197 22.4376 71.9984 22.8251 72.3759C23.2156 72.7472 23.3348 73.279 23.0718 73.5548Z" fill="white"/>
<path fill-rule="evenodd" clip-rule="evenodd" d="M26.4251 75.0451C26.3163 75.4065 25.8104 75.5708 25.3007 75.4172C24.7917 75.259 24.4586 74.8358 24.5614 74.4705C24.6672 74.1069 25.1755 73.9357 25.6889 74.1C26.1971 74.2574 26.531 74.6776 26.4251 75.0451Z" fill="white"/>
<path fill-rule="evenodd" clip-rule="evenodd" d="M30.1078 75.3221C30.1204 75.7026 29.6882 76.0181 29.1532 76.0243C28.6152 76.0372 28.18 75.7293 28.174 75.3549C28.174 74.9706 28.5965 74.6581 29.1346 74.649C29.6696 74.6383 30.1078 74.9439 30.1078 75.3221Z" fill="white"/>
<path fill-rule="evenodd" clip-rule="evenodd" d="M33.5348 74.7238C33.5989 75.0952 33.2271 75.4764 32.6958 75.5773C32.1734 75.6759 31.6898 75.4466 31.6234 75.0784C31.5586 74.6979 31.9372 74.3166 32.4588 74.218C32.9909 74.1233 33.467 74.3464 33.5348 74.7238Z" fill="white"/>
</svg>
