<svg width="90" height="90" viewBox="0 0 90 90" fill="none" xmlns="http://www.w3.org/2000/svg">
<path fill-rule="evenodd" clip-rule="evenodd" d="M45 0C20.1472 0 0 20.1472 0 45C0 69.8528 20.1472 90 45 90C69.8528 90 90 69.8528 90 45C90 20.1472 69.8528 0 45 0ZM21.603 37.2711H31.801V67.9118H21.603V37.2711ZM32.4727 27.7926C32.4065 24.7883 30.2581 22.5 26.7694 22.5C23.2808 22.5 21 24.7883 21 27.7926C21 30.7346 23.2134 33.0888 26.6371 33.0888H26.7022C30.2581 33.0888 32.4727 30.7346 32.4727 27.7926ZM56.8371 36.5515C63.5479 36.5515 68.5788 40.9318 68.5788 50.3433L68.5784 67.9117H58.3809V51.5189C58.3809 47.4014 56.9051 44.5917 53.2134 44.5917C50.396 44.5917 48.7179 46.4859 47.9808 48.3153C47.7112 48.971 47.645 49.8845 47.645 50.8002V67.9125H37.4458C37.4458 67.9125 37.5802 40.147 37.4458 37.2718H47.645V41.6118C48.9985 39.5255 51.4227 36.5515 56.8371 36.5515Z" fill="white"/>
</svg>
