<svg width="389" height="263" viewBox="0 0 389 263" fill="none" xmlns="http://www.w3.org/2000/svg">
<circle cx="71" cy="88" r="27" fill="#F15A5A"/>
<circle cx="71" cy="88" r="27" fill="#F15A5A"/>
<circle cx="71" cy="88" r="27" fill="#F15A5A"/>
<circle cx="71" cy="88" r="27" fill="#F15A5A"/>
<circle cx="154" cy="86" r="27" fill="#F15A5A"/>
<circle cx="154" cy="86" r="27" fill="#F15A5A"/>
<circle cx="154" cy="86" r="27" fill="#F15A5A"/>
<circle cx="154" cy="86" r="27" fill="#F15A5A"/>
<circle cx="236" cy="88" r="27" fill="#F15A5A"/>
<circle cx="236" cy="88" r="27" fill="#F15A5A"/>
<circle cx="236" cy="88" r="27" fill="#F15A5A"/>
<circle cx="236" cy="88" r="27" fill="#F15A5A"/>
<circle cx="319" cy="86" r="27" fill="#F15A5A"/>
<circle cx="319" cy="86" r="27" fill="#F15A5A"/>
<circle cx="319" cy="86" r="27" fill="#F15A5A"/>
<circle cx="319" cy="86" r="27" fill="#F15A5A"/>
<circle cx="71" cy="165" r="27" fill="#F15A5A"/>
<circle cx="71" cy="165" r="27" fill="#F15A5A"/>
<circle cx="71" cy="165" r="27" fill="#F15A5A"/>
<circle cx="71" cy="165" r="27" fill="#F15A5A"/>
<circle cx="154" cy="163" r="27" fill="#F15A5A"/>
<circle cx="154" cy="163" r="27" fill="#F15A5A"/>
<circle cx="154" cy="163" r="27" fill="#F15A5A"/>
<circle cx="154" cy="163" r="27" fill="#F15A5A"/>
<circle cx="236" cy="165" r="27" fill="#F15A5A"/>
<circle cx="236" cy="165" r="27" fill="#F15A5A"/>
<circle cx="236" cy="165" r="27" fill="#F15A5A"/>
<circle cx="236" cy="165" r="27" fill="#F15A5A"/>
<circle cx="319" cy="163" r="27" fill="#F15A5A"/>
<circle cx="319" cy="163" r="27" fill="#F15A5A"/>
<circle cx="319" cy="163" r="27" fill="#F15A5A"/>
<circle cx="319" cy="163" r="27" fill="#F15A5A"/>
<rect x="2.5" y="2.5" width="384" height="258" rx="37.5" stroke="#F15A5A" stroke-width="5"/>
<path fill-rule="evenodd" clip-rule="evenodd" d="M316.707 165.293L326 156L327.414 157.414L316.707 168.121L311 162.414L312.414 161L316.707 165.293Z" fill="black"/>
<path fill-rule="evenodd" clip-rule="evenodd" d="M233.707 90.2929L243 81L244.414 82.4142L233.707 93.1213L228 87.4142L229.414 86L233.707 90.2929Z" fill="black"/>
<path fill-rule="evenodd" clip-rule="evenodd" d="M68.7071 90.2929L78 81L79.4142 82.4142L68.7071 93.1213L63 87.4142L64.4142 86L68.7071 90.2929Z" fill="black"/>
</svg>
