<svg width="389" height="263" viewBox="0 0 389 263" fill="none" xmlns="http://www.w3.org/2000/svg">
<rect x="2.5" y="2.5" width="384" height="258" rx="37.5" stroke="#F15A5A" stroke-width="5"/>
<line x1="90.5" y1="46.5" x2="141.5" y2="46.5" stroke="#CBCBCB" stroke-opacity="0.44" stroke-width="5" stroke-linecap="round"/>
<line x1="90.5" y1="46.5" x2="141.5" y2="46.5" stroke="#CBCBCB" stroke-opacity="0.44" stroke-width="5" stroke-linecap="round"/>
<line x1="90.5" y1="46.5" x2="141.5" y2="46.5" stroke="#CBCBCB" stroke-opacity="0.44" stroke-width="5" stroke-linecap="round"/>
<line x1="90.5" y1="46.5" x2="141.5" y2="46.5" stroke="#CBCBCB" stroke-opacity="0.44" stroke-width="5" stroke-linecap="round"/>
<line x1="90.5" y1="78.5" x2="168.5" y2="78.5" stroke="#CBCBCB" stroke-opacity="0.44" stroke-width="5" stroke-linecap="round"/>
<line x1="90.5" y1="78.5" x2="168.5" y2="78.5" stroke="#CBCBCB" stroke-opacity="0.44" stroke-width="5" stroke-linecap="round"/>
<line x1="90.5" y1="78.5" x2="168.5" y2="78.5" stroke="#CBCBCB" stroke-opacity="0.44" stroke-width="5" stroke-linecap="round"/>
<line x1="90.5" y1="78.5" x2="168.5" y2="78.5" stroke="#CBCBCB" stroke-opacity="0.44" stroke-width="5" stroke-linecap="round"/>
<line x1="90.5" y1="110.5" x2="159.5" y2="110.5" stroke="#CBCBCB" stroke-opacity="0.44" stroke-width="5" stroke-linecap="round"/>
<line x1="90.5" y1="110.5" x2="159.5" y2="110.5" stroke="#CBCBCB" stroke-opacity="0.44" stroke-width="5" stroke-linecap="round"/>
<line x1="90.5" y1="110.5" x2="159.5" y2="110.5" stroke="#CBCBCB" stroke-opacity="0.44" stroke-width="5" stroke-linecap="round"/>
<line x1="90.5" y1="110.5" x2="159.5" y2="110.5" stroke="#CBCBCB" stroke-opacity="0.44" stroke-width="5" stroke-linecap="round"/>
<line x1="90.5" y1="142.5" x2="148.5" y2="142.5" stroke="#CBCBCB" stroke-opacity="0.44" stroke-width="5" stroke-linecap="round"/>
<line x1="90.5" y1="142.5" x2="148.5" y2="142.5" stroke="#CBCBCB" stroke-opacity="0.44" stroke-width="5" stroke-linecap="round"/>
<line x1="90.5" y1="142.5" x2="148.5" y2="142.5" stroke="#CBCBCB" stroke-opacity="0.44" stroke-width="5" stroke-linecap="round"/>
<line x1="90.5" y1="142.5" x2="148.5" y2="142.5" stroke="#CBCBCB" stroke-opacity="0.44" stroke-width="5" stroke-linecap="round"/>
<line x1="90.5" y1="174.5" x2="127.5" y2="174.5" stroke="#CBCBCB" stroke-opacity="0.44" stroke-width="5" stroke-linecap="round"/>
<line x1="90.5" y1="174.5" x2="127.5" y2="174.5" stroke="#CBCBCB" stroke-opacity="0.44" stroke-width="5" stroke-linecap="round"/>
<line x1="90.5" y1="174.5" x2="127.5" y2="174.5" stroke="#CBCBCB" stroke-opacity="0.44" stroke-width="5" stroke-linecap="round"/>
<line x1="90.5" y1="174.5" x2="127.5" y2="174.5" stroke="#CBCBCB" stroke-opacity="0.44" stroke-width="5" stroke-linecap="round"/>
<line x1="90.5" y1="206.5" x2="159.5" y2="206.5" stroke="#CBCBCB" stroke-opacity="0.44" stroke-width="5" stroke-linecap="round"/>
<line x1="90.5" y1="206.5" x2="159.5" y2="206.5" stroke="#CBCBCB" stroke-opacity="0.44" stroke-width="5" stroke-linecap="round"/>
<line x1="90.5" y1="206.5" x2="159.5" y2="206.5" stroke="#CBCBCB" stroke-opacity="0.44" stroke-width="5" stroke-linecap="round"/>
<line x1="90.5" y1="206.5" x2="159.5" y2="206.5" stroke="#CBCBCB" stroke-opacity="0.44" stroke-width="5" stroke-linecap="round"/>
<line x1="192.5" y1="46.5" x2="229.5" y2="46.5" stroke="#CBCBCB" stroke-opacity="0.44" stroke-width="5" stroke-linecap="round"/>
<line x1="192.5" y1="46.5" x2="229.5" y2="46.5" stroke="#CBCBCB" stroke-opacity="0.44" stroke-width="5" stroke-linecap="round"/>
<line x1="192.5" y1="46.5" x2="229.5" y2="46.5" stroke="#CBCBCB" stroke-opacity="0.44" stroke-width="5" stroke-linecap="round"/>
<line x1="192.5" y1="46.5" x2="229.5" y2="46.5" stroke="#CBCBCB" stroke-opacity="0.44" stroke-width="5" stroke-linecap="round"/>
<line x1="192.5" y1="78.5" x2="229.5" y2="78.5" stroke="#CBCBCB" stroke-opacity="0.44" stroke-width="5" stroke-linecap="round"/>
<line x1="192.5" y1="78.5" x2="229.5" y2="78.5" stroke="#CBCBCB" stroke-opacity="0.44" stroke-width="5" stroke-linecap="round"/>
<line x1="192.5" y1="78.5" x2="229.5" y2="78.5" stroke="#CBCBCB" stroke-opacity="0.44" stroke-width="5" stroke-linecap="round"/>
<line x1="192.5" y1="78.5" x2="229.5" y2="78.5" stroke="#CBCBCB" stroke-opacity="0.44" stroke-width="5" stroke-linecap="round"/>
<line x1="192.5" y1="110.5" x2="229.5" y2="110.5" stroke="#CBCBCB" stroke-opacity="0.44" stroke-width="5" stroke-linecap="round"/>
<line x1="192.5" y1="110.5" x2="229.5" y2="110.5" stroke="#CBCBCB" stroke-opacity="0.44" stroke-width="5" stroke-linecap="round"/>
<line x1="192.5" y1="110.5" x2="229.5" y2="110.5" stroke="#CBCBCB" stroke-opacity="0.44" stroke-width="5" stroke-linecap="round"/>
<line x1="192.5" y1="110.5" x2="229.5" y2="110.5" stroke="#CBCBCB" stroke-opacity="0.44" stroke-width="5" stroke-linecap="round"/>
<line x1="192.5" y1="142.5" x2="229.5" y2="142.5" stroke="#CBCBCB" stroke-opacity="0.44" stroke-width="5" stroke-linecap="round"/>
<line x1="192.5" y1="142.5" x2="229.5" y2="142.5" stroke="#CBCBCB" stroke-opacity="0.44" stroke-width="5" stroke-linecap="round"/>
<line x1="192.5" y1="142.5" x2="229.5" y2="142.5" stroke="#CBCBCB" stroke-opacity="0.44" stroke-width="5" stroke-linecap="round"/>
<line x1="192.5" y1="142.5" x2="229.5" y2="142.5" stroke="#CBCBCB" stroke-opacity="0.44" stroke-width="5" stroke-linecap="round"/>
<line x1="192.5" y1="174.5" x2="229.5" y2="174.5" stroke="#CBCBCB" stroke-opacity="0.44" stroke-width="5" stroke-linecap="round"/>
<line x1="192.5" y1="174.5" x2="229.5" y2="174.5" stroke="#CBCBCB" stroke-opacity="0.44" stroke-width="5" stroke-linecap="round"/>
<line x1="192.5" y1="174.5" x2="229.5" y2="174.5" stroke="#CBCBCB" stroke-opacity="0.44" stroke-width="5" stroke-linecap="round"/>
<line x1="192.5" y1="174.5" x2="229.5" y2="174.5" stroke="#CBCBCB" stroke-opacity="0.44" stroke-width="5" stroke-linecap="round"/>
<line x1="192.5" y1="206.5" x2="229.5" y2="206.5" stroke="#CBCBCB" stroke-opacity="0.44" stroke-width="5" stroke-linecap="round"/>
<line x1="192.5" y1="206.5" x2="229.5" y2="206.5" stroke="#CBCBCB" stroke-opacity="0.44" stroke-width="5" stroke-linecap="round"/>
<line x1="192.5" y1="206.5" x2="229.5" y2="206.5" stroke="#CBCBCB" stroke-opacity="0.44" stroke-width="5" stroke-linecap="round"/>
<line x1="192.5" y1="206.5" x2="229.5" y2="206.5" stroke="#CBCBCB" stroke-opacity="0.44" stroke-width="5" stroke-linecap="round"/>
<line x1="255.5" y1="46.5" x2="292.5" y2="46.5" stroke="#CBCBCB" stroke-opacity="0.44" stroke-width="5" stroke-linecap="round"/>
<line x1="255.5" y1="46.5" x2="292.5" y2="46.5" stroke="#CBCBCB" stroke-opacity="0.44" stroke-width="5" stroke-linecap="round"/>
<line x1="255.5" y1="46.5" x2="292.5" y2="46.5" stroke="#CBCBCB" stroke-opacity="0.44" stroke-width="5" stroke-linecap="round"/>
<line x1="255.5" y1="46.5" x2="292.5" y2="46.5" stroke="#CBCBCB" stroke-opacity="0.44" stroke-width="5" stroke-linecap="round"/>
<line x1="255.5" y1="78.5" x2="292.5" y2="78.5" stroke="#CBCBCB" stroke-opacity="0.44" stroke-width="5" stroke-linecap="round"/>
<line x1="255.5" y1="78.5" x2="292.5" y2="78.5" stroke="#CBCBCB" stroke-opacity="0.44" stroke-width="5" stroke-linecap="round"/>
<line x1="255.5" y1="78.5" x2="292.5" y2="78.5" stroke="#CBCBCB" stroke-opacity="0.44" stroke-width="5" stroke-linecap="round"/>
<line x1="255.5" y1="78.5" x2="292.5" y2="78.5" stroke="#CBCBCB" stroke-opacity="0.44" stroke-width="5" stroke-linecap="round"/>
<line x1="255.5" y1="110.5" x2="292.5" y2="110.5" stroke="#CBCBCB" stroke-opacity="0.44" stroke-width="5" stroke-linecap="round"/>
<line x1="255.5" y1="110.5" x2="292.5" y2="110.5" stroke="#CBCBCB" stroke-opacity="0.44" stroke-width="5" stroke-linecap="round"/>
<line x1="255.5" y1="110.5" x2="292.5" y2="110.5" stroke="#CBCBCB" stroke-opacity="0.44" stroke-width="5" stroke-linecap="round"/>
<line x1="255.5" y1="110.5" x2="292.5" y2="110.5" stroke="#CBCBCB" stroke-opacity="0.44" stroke-width="5" stroke-linecap="round"/>
<line x1="255.5" y1="142.5" x2="292.5" y2="142.5" stroke="#CBCBCB" stroke-opacity="0.44" stroke-width="5" stroke-linecap="round"/>
<line x1="255.5" y1="142.5" x2="292.5" y2="142.5" stroke="#CBCBCB" stroke-opacity="0.44" stroke-width="5" stroke-linecap="round"/>
<line x1="255.5" y1="142.5" x2="292.5" y2="142.5" stroke="#CBCBCB" stroke-opacity="0.44" stroke-width="5" stroke-linecap="round"/>
<line x1="255.5" y1="142.5" x2="292.5" y2="142.5" stroke="#CBCBCB" stroke-opacity="0.44" stroke-width="5" stroke-linecap="round"/>
<line x1="255.5" y1="174.5" x2="292.5" y2="174.5" stroke="#CBCBCB" stroke-opacity="0.44" stroke-width="5" stroke-linecap="round"/>
<line x1="255.5" y1="174.5" x2="292.5" y2="174.5" stroke="#CBCBCB" stroke-opacity="0.44" stroke-width="5" stroke-linecap="round"/>
<line x1="255.5" y1="174.5" x2="292.5" y2="174.5" stroke="#CBCBCB" stroke-opacity="0.44" stroke-width="5" stroke-linecap="round"/>
<line x1="255.5" y1="174.5" x2="292.5" y2="174.5" stroke="#CBCBCB" stroke-opacity="0.44" stroke-width="5" stroke-linecap="round"/>
<line x1="255.5" y1="206.5" x2="292.5" y2="206.5" stroke="#CBCBCB" stroke-opacity="0.44" stroke-width="5" stroke-linecap="round"/>
<line x1="255.5" y1="206.5" x2="292.5" y2="206.5" stroke="#CBCBCB" stroke-opacity="0.44" stroke-width="5" stroke-linecap="round"/>
<line x1="255.5" y1="206.5" x2="292.5" y2="206.5" stroke="#CBCBCB" stroke-opacity="0.44" stroke-width="5" stroke-linecap="round"/>
<line x1="255.5" y1="206.5" x2="292.5" y2="206.5" stroke="#CBCBCB" stroke-opacity="0.44" stroke-width="5" stroke-linecap="round"/>
<line x1="50" y1="60.5" x2="338" y2="60.5" stroke="#838383"/>
<line x1="51" y1="92.5" x2="339" y2="92.5" stroke="#838383"/>
<line x1="52" y1="124.5" x2="340" y2="124.5" stroke="#838383"/>
<line x1="53" y1="156.5" x2="341" y2="156.5" stroke="#838383"/>
<line x1="54" y1="188.5" x2="342" y2="188.5" stroke="#838383"/>
<line x1="55" y1="220.5" x2="343" y2="220.5" stroke="#838383"/>
<path fill-rule="evenodd" clip-rule="evenodd" d="M56.9167 40.75V51.25C56.9167 51.7115 57.4272 51.9903 57.8155 51.7407L65.9821 46.4907C66.3393 46.2611 66.3393 45.7389 65.9821 45.5093L57.8155 40.2593C57.4272 40.0097 56.9167 40.2885 56.9167 40.75ZM64.588 46L58.0834 50.1815V41.8185L64.588 46Z" fill="#F15A5A"/>
<path fill-rule="evenodd" clip-rule="evenodd" d="M57.9167 103.75V114.25C57.9167 114.712 58.4272 114.99 58.8155 114.741L66.9821 109.491C67.3393 109.261 67.3393 108.739 66.9821 108.509L58.8155 103.259C58.4272 103.01 57.9167 103.288 57.9167 103.75ZM65.588 109L59.0834 113.182V104.818L65.588 109Z" fill="#F15A5A"/>
<path fill-rule="evenodd" clip-rule="evenodd" d="M57.9167 135.75V146.25C57.9167 146.712 58.4272 146.99 58.8155 146.741L66.9821 141.491C67.3393 141.261 67.3393 140.739 66.9821 140.509L58.8155 135.259C58.4272 135.01 57.9167 135.288 57.9167 135.75ZM65.588 141L59.0834 145.182V136.818L65.588 141Z" fill="#F15A5A"/>
<path fill-rule="evenodd" clip-rule="evenodd" d="M57.9167 167.75V178.25C57.9167 178.712 58.4272 178.99 58.8155 178.741L66.9821 173.491C67.3393 173.261 67.3393 172.739 66.9821 172.509L58.8155 167.259C58.4272 167.01 57.9167 167.288 57.9167 167.75ZM65.588 173L59.0834 177.182V168.818L65.588 173Z" fill="#F15A5A"/>
<path fill-rule="evenodd" clip-rule="evenodd" d="M57.9167 199.75V210.25C57.9167 210.712 58.4272 210.99 58.8155 210.741L66.9821 205.491C67.3393 205.261 67.3393 204.739 66.9821 204.509L58.8155 199.259C58.4272 199.01 57.9167 199.288 57.9167 199.75ZM65.588 205L59.0834 209.182V200.818L65.588 205Z" fill="#F15A5A"/>
<path fill-rule="evenodd" clip-rule="evenodd" d="M59.125 68.5833H57.5416C56.6672 68.5833 55.9583 69.2922 55.9583 70.1666V82.8333C55.9583 83.7078 56.6672 84.4166 57.5416 84.4166H59.125C59.9994 84.4166 60.7083 83.7078 60.7083 82.8333V70.1666C60.7083 69.2922 59.9994 68.5833 59.125 68.5833ZM65.4583 68.5833H63.875C63.0005 68.5833 62.2916 69.2922 62.2916 70.1666V82.8333C62.2916 83.7078 63.0005 84.4166 63.875 84.4166H65.4583C66.3328 84.4166 67.0416 83.7078 67.0416 82.8333V70.1666C67.0416 69.2922 66.3328 68.5833 65.4583 68.5833ZM57.5416 70.1666V82.8333H59.125V70.1666H57.5416ZM63.875 82.8333V70.1666H65.4583V82.8333H63.875Z" fill="#F15A5A"/>
</svg>
