<svg width="90" height="90" viewBox="0 0 90 90" fill="none" xmlns="http://www.w3.org/2000/svg">
<path fill-rule="evenodd" clip-rule="evenodd" d="M45 0C20.1472 0 0 20.1472 0 45C0 69.8528 20.1472 90 45 90C69.8528 90 90 69.8528 90 45C90 20.1472 69.8528 0 45 0ZM43.7467 38.1337L43.6523 36.5766C43.369 32.5408 45.8556 28.8546 49.7902 27.4246C51.2381 26.9162 53.6933 26.8526 55.2986 27.2975C55.9281 27.4882 57.1242 28.1237 57.9741 28.6957L59.5164 29.7444L61.2162 29.2042C62.1605 28.9182 63.4195 28.4415 63.9861 28.1237C64.5212 27.8377 64.9934 27.6788 64.9934 27.7742C64.9934 28.3144 63.8287 30.1575 62.853 31.1744C61.5309 32.6044 61.9087 32.7315 64.5842 31.7781C66.1895 31.2379 66.221 31.2379 65.9062 31.8417C65.7173 32.1595 64.7416 33.2717 63.7028 34.2886C61.9401 36.0363 61.8457 36.227 61.8457 37.6888C61.8457 39.945 60.7755 44.6481 59.7053 47.2221C57.7223 52.0522 53.4729 57.0413 49.2236 59.5518C43.2431 63.0791 35.2795 63.9688 28.575 61.9033C26.3401 61.2042 22.5 59.4246 22.5 59.1069C22.5 59.0115 23.6646 58.8844 25.0811 58.8526C28.0399 58.7891 30.9987 57.9629 33.5168 56.5011L35.2165 55.4842L33.265 54.8169C30.495 53.8636 28.0084 51.6709 27.3789 49.6054C27.19 48.938 27.253 48.9063 29.0156 48.9063L30.8413 48.8745L29.2989 48.1436C27.4733 47.2221 25.805 45.665 24.9866 44.0761C24.3886 42.9321 23.6332 40.0403 23.8535 39.8179C23.9164 39.7225 24.5775 39.9132 25.3329 40.1674C27.5048 40.9619 27.7881 40.7712 26.529 39.4365C24.1683 37.0215 23.4443 33.4306 24.5775 30.0304L25.1126 28.5051L27.19 30.5706C31.4393 34.7335 36.4441 37.2121 42.1729 37.943L43.7467 38.1337Z" fill="white"/>
</svg>
